<svg xmlns="http://www.w3.org/2000/svg" viewBox="0 0 500 700" width="100%" height="100%">
  <title>Logo Congreso Electrónico 2026</title>
  <defs>
    <style>
      @import url('https://fonts.googleapis.com/css2?family=Montserrat:wght@400;700;900&amp;display=swap');
      .text-bold { font-family: 'Montserrat', sans-serif; font-weight: 900; }
      .text-light { font-family: 'Montserrat', sans-serif; font-weight: 400; }
    </style>
  </defs>


  <g transform="translate(260, 250)">

    <g stroke="#0049db" stroke-width="6" fill="none">
      <ellipse cx="0" cy="0" rx="40" ry="95" />
      <ellipse cx="0" cy="0" rx="95" ry="40" />
      <ellipse cx="0" cy="0" rx="40" ry="95" transform="rotate(45)" />
      <ellipse cx="0" cy="0" rx="40" ry="95" transform="rotate(-45)" />
    </g>

    <g stroke="#002452" stroke-width="6" fill="none" stroke-linecap="round" stroke-linejoin="round">
      <circle cx="0" cy="0" r="100" />

      <path d="M 0 -100 L 0 -140 M 70 -70 L 105 -105 L 135 -105 M -70 -70 L -95 -95 L -95 -125 M 100 -20 L 145 -20 M 100 30 L 125 30 L 125 65 M 50 86 L 50 130 L 85 130 M -25 96 L -25 140 M -86 50 L -120 50 L -120 85 M -100 -25 L -145 -25" />

      <path d="M 86 -50 L 120 -50 L 120 -80 M -50 86 L -50 120 L -80 120" />
    </g>

    <g fill="#002452">
      <circle cx="0" cy="-140" r="8.5" />
      <circle cx="135" cy="-105" r="8.5" />
      <circle cx="-95" cy="-125" r="8.5" />
      <circle cx="145" cy="-20" r="8.5" />
      <circle cx="125" cy="65" r="8.5" />
      <circle cx="85" cy="130" r="8.5" />
      <circle cx="-25" cy="140" r="8.5" />
      <circle cx="-120" cy="85" r="8.5" />
      <circle cx="-145" cy="-25" r="8.5" />

      <circle cx="120" cy="-80" r="8.5" />
      <circle cx="-80" cy="120" r="8.5" />
    </g>

    <g transform="translate(0, 0)">

      <g stroke="#FFB81C" stroke-width="6" fill="none" stroke-linecap="round" stroke-linejoin="round">
        <rect x="-20" y="-20" width="40" height="40" rx="4" />
        <rect x="-4" y="-4" width="8" height="8" rx="2" fill="#FFB81C" stroke="none" />
        <path d="M -10 -20 L -10 -32 M 0 -20 L 0 -32 M 10 -20 L 10 -32 M -10 20 L -10 32 M 0 20 L 0 32 M 10 20 L 10 32 M -20 -10 L -32 -10 M -20 0 L -32 0 M -20 10 L -32 10 M 20 -10 L 32 -10 M 20 0 L 32 0 M 20 10 L 32 10" />
      </g>
    </g>
  </g>

  <g transform="translate(100, 500)">
    <text x="0" y="-10" class="text-bold" font-size="58" fill="#0049db" letter-spacing="-1">CONGRESO</text>
    <text x="0" y="45" class="text-bold" font-size="46" fill="#0e315c" letter-spacing="1.5">ELECTRÓNICO</text>
    <text x="100" y="115" class="text-bold" font-size="68" fill="#ffb81c" letter-spacing="-2">2026</text>
  </g>
</svg>
